<svg width="163" height="24" viewBox="0 0 163 24" fill="none" xmlns="http://www.w3.org/2000/svg">
<path d="M10.1211 9.70508V11.085H3.19531V9.70508H10.1211ZM3.45898 4.20312V17H1.7627V4.20312H3.45898ZM11.5977 4.20312V17H9.91016V4.20312H11.5977ZM13.9355 12.3506V12.1484C13.9355 11.4629 14.0352 10.8271 14.2344 10.2412C14.4336 9.64941 14.7207 9.13672 15.0957 8.70312C15.4707 8.26367 15.9248 7.92383 16.458 7.68359C16.9912 7.4375 17.5889 7.31445 18.251 7.31445C18.9189 7.31445 19.5195 7.4375 20.0527 7.68359C20.5918 7.92383 21.0488 8.26367 21.4238 8.70312C21.8047 9.13672 22.0947 9.64941 22.2939 10.2412C22.4932 10.8271 22.5928 11.4629 22.5928 12.1484V12.3506C22.5928 13.0361 22.4932 13.6719 22.2939 14.2578C22.0947 14.8438 21.8047 15.3564 21.4238 15.7959C21.0488 16.2295 20.5947 16.5693 20.0615 16.8154C19.5342 17.0557 18.9365 17.1758 18.2686 17.1758C17.6006 17.1758 17 17.0557 16.4668 16.8154C15.9336 16.5693 15.4766 16.2295 15.0957 15.7959C14.7207 15.3564 14.4336 14.8438 14.2344 14.2578C14.0352 13.6719 13.9355 13.0361 13.9355 12.3506ZM15.5615 12.1484V12.3506C15.5615 12.8252 15.6172 13.2734 15.7285 13.6953C15.8398 14.1113 16.0068 14.4805 16.2295 14.8027C16.458 15.125 16.7422 15.3799 17.082 15.5674C17.4219 15.749 17.8174 15.8398 18.2686 15.8398C18.7139 15.8398 19.1035 15.749 19.4375 15.5674C19.7773 15.3799 20.0586 15.125 20.2812 14.8027C20.5039 14.4805 20.6709 14.1113 20.7822 13.6953C20.8994 13.2734 20.958 12.8252 20.958 12.3506V12.1484C20.958 11.6797 20.8994 11.2373 20.7822 10.8213C20.6709 10.3994 20.501 10.0273 20.2725 9.70508C20.0498 9.37695 19.7686 9.11914 19.4287 8.93164C19.0947 8.74414 18.7021 8.65039 18.251 8.65039C17.8057 8.65039 17.4131 8.74414 17.0732 8.93164C16.7393 9.11914 16.458 9.37695 16.2295 9.70508C16.0068 10.0273 15.8398 10.3994 15.7285 10.8213C15.6172 11.2373 15.5615 11.6797 15.5615 12.1484ZM26.249 9.37988V17H24.6143V7.49023H26.1611L26.249 9.37988ZM25.915 11.8848L25.1592 11.8584C25.165 11.208 25.25 10.6074 25.4141 10.0566C25.5781 9.5 25.8213 9.0166 26.1436 8.60645C26.4658 8.19629 26.8672 7.87988 27.3477 7.65723C27.8281 7.42871 28.3848 7.31445 29.0176 7.31445C29.4629 7.31445 29.873 7.37891 30.248 7.50781C30.623 7.63086 30.9482 7.82715 31.2236 8.09668C31.499 8.36621 31.7129 8.71191 31.8652 9.13379C32.0176 9.55566 32.0938 10.0654 32.0938 10.6631V17H30.4678V10.7422C30.4678 10.2441 30.3828 9.8457 30.2129 9.54688C30.0488 9.24805 29.8145 9.03125 29.5098 8.89648C29.2051 8.75586 28.8477 8.68555 28.4375 8.68555C27.957 8.68555 27.5557 8.77051 27.2334 8.94043C26.9111 9.11035 26.6533 9.34473 26.46 9.64355C26.2666 9.94238 26.126 10.2852 26.0381 10.6719C25.9561 11.0527 25.915 11.457 25.915 11.8848ZM32.0762 10.9883L30.9863 11.3223C30.9922 10.8008 31.0771 10.2998 31.2412 9.81934C31.4111 9.33887 31.6543 8.91113 31.9707 8.53613C32.293 8.16113 32.6885 7.86523 33.1572 7.64844C33.626 7.42578 34.1621 7.31445 34.7656 7.31445C35.2754 7.31445 35.7266 7.38184 36.1191 7.5166C36.5176 7.65137 36.8516 7.85938 37.1211 8.14062C37.3965 8.41602 37.6045 8.77051 37.7451 9.2041C37.8857 9.6377 37.9561 10.1533 37.9561 10.751V17H36.3213V10.7334C36.3213 10.2002 36.2363 9.78711 36.0664 9.49414C35.9023 9.19531 35.668 8.9873 35.3633 8.87012C35.0645 8.74707 34.707 8.68555 34.291 8.68555C33.9336 8.68555 33.6172 8.74707 33.3418 8.87012C33.0664 8.99316 32.835 9.16309 32.6475 9.37988C32.46 9.59082 32.3164 9.83398 32.2168 10.1094C32.123 10.3848 32.0762 10.6777 32.0762 10.9883ZM44.3633 17.1758C43.7012 17.1758 43.1006 17.0645 42.5615 16.8418C42.0283 16.6133 41.5684 16.2939 41.1816 15.8838C40.8008 15.4736 40.5078 14.9873 40.3027 14.4248C40.0977 13.8623 39.9951 13.2471 39.9951 12.5791V12.21C39.9951 11.4365 40.1094 10.748 40.3379 10.1445C40.5664 9.53516 40.877 9.01953 41.2695 8.59766C41.6621 8.17578 42.1074 7.85645 42.6055 7.63965C43.1035 7.42285 43.6191 7.31445 44.1523 7.31445C44.832 7.31445 45.418 7.43164 45.9102 7.66602C46.4082 7.90039 46.8154 8.22852 47.1318 8.65039C47.4482 9.06641 47.6826 9.55859 47.835 10.127C47.9873 10.6895 48.0635 11.3047 48.0635 11.9727V12.7021H40.9619V11.375H46.4375V11.252C46.4141 10.8301 46.3262 10.4199 46.1738 10.0215C46.0273 9.62305 45.793 9.29492 45.4707 9.03711C45.1484 8.7793 44.709 8.65039 44.1523 8.65039C43.7832 8.65039 43.4434 8.72949 43.1328 8.8877C42.8223 9.04004 42.5557 9.26855 42.333 9.57324C42.1104 9.87793 41.9375 10.25 41.8145 10.6895C41.6914 11.1289 41.6299 11.6357 41.6299 12.21V12.5791C41.6299 13.0303 41.6914 13.4551 41.8145 13.8535C41.9434 14.2461 42.1279 14.5918 42.3682 14.8906C42.6143 15.1895 42.9102 15.4238 43.2559 15.5938C43.6074 15.7637 44.0059 15.8486 44.4512 15.8486C45.0254 15.8486 45.5117 15.7314 45.9102 15.4971C46.3086 15.2627 46.6572 14.9492 46.9561 14.5566L47.9404 15.3389C47.7354 15.6494 47.4746 15.9453 47.1582 16.2266C46.8418 16.5078 46.4521 16.7363 45.9893 16.9121C45.5322 17.0879 44.9902 17.1758 44.3633 17.1758Z" fill="#1A1B22"/>
<path d="M95.2471 4.20312V17H93.5771V4.20312H95.2471ZM99.3604 4.20312V5.5918H89.4727V4.20312H99.3604ZM101.971 8.98438V17H100.345V7.49023H101.927L101.971 8.98438ZM104.941 7.4375L104.933 8.94922C104.798 8.91992 104.669 8.90234 104.546 8.89648C104.429 8.88477 104.294 8.87891 104.142 8.87891C103.767 8.87891 103.436 8.9375 103.148 9.05469C102.861 9.17188 102.618 9.33594 102.419 9.54688C102.22 9.75781 102.062 10.0098 101.944 10.3027C101.833 10.5898 101.76 10.9062 101.725 11.252L101.268 11.5156C101.268 10.9414 101.323 10.4023 101.435 9.89844C101.552 9.39453 101.73 8.94922 101.971 8.5625C102.211 8.16992 102.516 7.86523 102.885 7.64844C103.26 7.42578 103.705 7.31445 104.221 7.31445C104.338 7.31445 104.473 7.3291 104.625 7.3584C104.777 7.38184 104.883 7.4082 104.941 7.4375ZM108.211 7.49023V17H106.576V7.49023H108.211ZM106.453 4.96777C106.453 4.7041 106.532 4.48145 106.69 4.2998C106.854 4.11816 107.095 4.02734 107.411 4.02734C107.722 4.02734 107.959 4.11816 108.123 4.2998C108.293 4.48145 108.378 4.7041 108.378 4.96777C108.378 5.21973 108.293 5.43652 108.123 5.61816C107.959 5.79395 107.722 5.88184 107.411 5.88184C107.095 5.88184 106.854 5.79395 106.69 5.61816C106.532 5.43652 106.453 5.21973 106.453 4.96777ZM112.447 9.31836V20.6562H110.812V7.49023H112.307L112.447 9.31836ZM118.854 12.166V12.3506C118.854 13.042 118.772 13.6836 118.608 14.2754C118.444 14.8613 118.204 15.3711 117.888 15.8047C117.577 16.2383 117.193 16.5752 116.736 16.8154C116.279 17.0557 115.755 17.1758 115.163 17.1758C114.56 17.1758 114.026 17.0762 113.563 16.877C113.101 16.6777 112.708 16.3877 112.386 16.0068C112.063 15.626 111.806 15.1689 111.612 14.6357C111.425 14.1025 111.296 13.502 111.226 12.834V11.8496C111.296 11.1465 111.428 10.5166 111.621 9.95996C111.814 9.40332 112.069 8.92871 112.386 8.53613C112.708 8.1377 113.098 7.83594 113.555 7.63086C114.012 7.41992 114.539 7.31445 115.137 7.31445C115.734 7.31445 116.265 7.43164 116.728 7.66602C117.19 7.89453 117.58 8.22266 117.896 8.65039C118.213 9.07812 118.45 9.59082 118.608 10.1885C118.772 10.7803 118.854 11.4395 118.854 12.166ZM117.22 12.3506V12.166C117.22 11.6914 117.17 11.2461 117.07 10.8301C116.971 10.4082 116.815 10.0391 116.604 9.72266C116.399 9.40039 116.136 9.14844 115.813 8.9668C115.491 8.7793 115.107 8.68555 114.662 8.68555C114.252 8.68555 113.895 8.75586 113.59 8.89648C113.291 9.03711 113.036 9.22754 112.825 9.46777C112.614 9.70215 112.441 9.97168 112.307 10.2764C112.178 10.5752 112.081 10.8857 112.017 11.208V13.4844C112.134 13.8945 112.298 14.2812 112.509 14.6445C112.72 15.002 113.001 15.292 113.353 15.5146C113.704 15.7314 114.146 15.8398 114.68 15.8398C115.119 15.8398 115.497 15.749 115.813 15.5674C116.136 15.3799 116.399 15.125 116.604 14.8027C116.815 14.4805 116.971 14.1113 117.07 13.6953C117.17 13.2734 117.22 12.8252 117.22 12.3506ZM122.695 3.5V17H121.061V3.5H122.695ZM129.252 17.1758C128.59 17.1758 127.989 17.0645 127.45 16.8418C126.917 16.6133 126.457 16.2939 126.07 15.8838C125.689 15.4736 125.396 14.9873 125.191 14.4248C124.986 13.8623 124.884 13.2471 124.884 12.5791V12.21C124.884 11.4365 124.998 10.748 125.227 10.1445C125.455 9.53516 125.766 9.01953 126.158 8.59766C126.551 8.17578 126.996 7.85645 127.494 7.63965C127.992 7.42285 128.508 7.31445 129.041 7.31445C129.721 7.31445 130.307 7.43164 130.799 7.66602C131.297 7.90039 131.704 8.22852 132.021 8.65039C132.337 9.06641 132.571 9.55859 132.724 10.127C132.876 10.6895 132.952 11.3047 132.952 11.9727V12.7021H125.851V11.375H131.326V11.252C131.303 10.8301 131.215 10.4199 131.062 10.0215C130.916 9.62305 130.682 9.29492 130.359 9.03711C130.037 8.7793 129.598 8.65039 129.041 8.65039C128.672 8.65039 128.332 8.72949 128.021 8.8877C127.711 9.04004 127.444 9.26855 127.222 9.57324C126.999 9.87793 126.826 10.25 126.703 10.6895C126.58 11.1289 126.519 11.6357 126.519 12.21V12.5791C126.519 13.0303 126.58 13.4551 126.703 13.8535C126.832 14.2461 127.017 14.5918 127.257 14.8906C127.503 15.1895 127.799 15.4238 128.145 15.5938C128.496 15.7637 128.895 15.8486 129.34 15.8486C129.914 15.8486 130.4 15.7314 130.799 15.4971C131.197 15.2627 131.546 14.9492 131.845 14.5566L132.829 15.3389C132.624 15.6494 132.363 15.9453 132.047 16.2266C131.73 16.5078 131.341 16.7363 130.878 16.9121C130.421 17.0879 129.879 17.1758 129.252 17.1758ZM139.825 4.20312V17H138.155V4.20312H139.825ZM143.938 4.20312V5.5918H134.051V4.20312H143.938ZM148.658 17.1758C147.996 17.1758 147.396 17.0645 146.856 16.8418C146.323 16.6133 145.863 16.2939 145.477 15.8838C145.096 15.4736 144.803 14.9873 144.598 14.4248C144.393 13.8623 144.29 13.2471 144.29 12.5791V12.21C144.29 11.4365 144.404 10.748 144.633 10.1445C144.861 9.53516 145.172 9.01953 145.564 8.59766C145.957 8.17578 146.402 7.85645 146.9 7.63965C147.398 7.42285 147.914 7.31445 148.447 7.31445C149.127 7.31445 149.713 7.43164 150.205 7.66602C150.703 7.90039 151.11 8.22852 151.427 8.65039C151.743 9.06641 151.978 9.55859 152.13 10.127C152.282 10.6895 152.358 11.3047 152.358 11.9727V12.7021H145.257V11.375H150.732V11.252C150.709 10.8301 150.621 10.4199 150.469 10.0215C150.322 9.62305 150.088 9.29492 149.766 9.03711C149.443 8.7793 149.004 8.65039 148.447 8.65039C148.078 8.65039 147.738 8.72949 147.428 8.8877C147.117 9.04004 146.851 9.26855 146.628 9.57324C146.405 9.87793 146.232 10.25 146.109 10.6895C145.986 11.1289 145.925 11.6357 145.925 12.21V12.5791C145.925 13.0303 145.986 13.4551 146.109 13.8535C146.238 14.2461 146.423 14.5918 146.663 14.8906C146.909 15.1895 147.205 15.4238 147.551 15.5938C147.902 15.7637 148.301 15.8486 148.746 15.8486C149.32 15.8486 149.807 15.7314 150.205 15.4971C150.604 15.2627 150.952 14.9492 151.251 14.5566L152.235 15.3389C152.03 15.6494 151.77 15.9453 151.453 16.2266C151.137 16.5078 150.747 16.7363 150.284 16.9121C149.827 17.0879 149.285 17.1758 148.658 17.1758ZM155.883 9.52051V17H154.257V7.49023H155.795L155.883 9.52051ZM155.496 11.8848L154.819 11.8584C154.825 11.208 154.922 10.6074 155.109 10.0566C155.297 9.5 155.561 9.0166 155.9 8.60645C156.24 8.19629 156.645 7.87988 157.113 7.65723C157.588 7.42871 158.112 7.31445 158.687 7.31445C159.155 7.31445 159.577 7.37891 159.952 7.50781C160.327 7.63086 160.646 7.83008 160.91 8.10547C161.18 8.38086 161.385 8.73828 161.525 9.17773C161.666 9.61133 161.736 10.1416 161.736 10.7686V17H160.102V10.751C160.102 10.2529 160.028 9.85449 159.882 9.55566C159.735 9.25098 159.521 9.03125 159.24 8.89648C158.959 8.75586 158.613 8.68555 158.203 8.68555C157.799 8.68555 157.43 8.77051 157.096 8.94043C156.768 9.11035 156.483 9.34473 156.243 9.64355C156.009 9.94238 155.824 10.2852 155.689 10.6719C155.561 11.0527 155.496 11.457 155.496 11.8848Z" fill="#1A1B22"/>
</svg>
