<svg width="1440" height="374" viewBox="0 0 1440 374" fill="none" xmlns="http://www.w3.org/2000/svg">
<rect width="1440" height="374" fill="#F5F6F7"/>
<path d="M618.715 260.766C618.715 260.467 618.668 260.203 618.574 259.975C618.486 259.74 618.328 259.529 618.1 259.342C617.877 259.154 617.566 258.976 617.168 258.806C616.775 258.636 616.277 258.463 615.674 258.287C615.041 258.1 614.47 257.892 613.96 257.663C613.45 257.429 613.014 257.162 612.65 256.863C612.287 256.564 612.009 256.222 611.815 255.835C611.622 255.448 611.525 255.006 611.525 254.508C611.525 254.01 611.628 253.55 611.833 253.128C612.038 252.706 612.331 252.34 612.712 252.029C613.099 251.713 613.559 251.467 614.092 251.291C614.625 251.115 615.22 251.027 615.876 251.027C616.837 251.027 617.651 251.212 618.319 251.581C618.993 251.944 619.506 252.422 619.857 253.014C620.209 253.6 620.385 254.227 620.385 254.895H618.697C618.697 254.414 618.595 253.989 618.39 253.62C618.185 253.245 617.874 252.952 617.458 252.741C617.042 252.524 616.515 252.416 615.876 252.416C615.272 252.416 614.774 252.507 614.382 252.688C613.989 252.87 613.696 253.116 613.503 253.427C613.315 253.737 613.222 254.092 613.222 254.49C613.222 254.76 613.277 255.006 613.389 255.229C613.506 255.445 613.685 255.647 613.925 255.835C614.171 256.022 614.481 256.195 614.856 256.354C615.237 256.512 615.691 256.664 616.219 256.811C616.945 257.016 617.572 257.244 618.1 257.496C618.627 257.748 619.061 258.032 619.4 258.349C619.746 258.659 620.001 259.014 620.165 259.412C620.335 259.805 620.42 260.25 620.42 260.748C620.42 261.27 620.314 261.741 620.104 262.163C619.893 262.585 619.591 262.945 619.198 263.244C618.806 263.543 618.334 263.774 617.783 263.938C617.238 264.097 616.629 264.176 615.955 264.176C615.363 264.176 614.78 264.094 614.206 263.93C613.638 263.766 613.119 263.52 612.65 263.191C612.188 262.863 611.815 262.459 611.534 261.979C611.259 261.492 611.121 260.93 611.121 260.291H612.809C612.809 260.73 612.894 261.108 613.063 261.425C613.233 261.735 613.465 261.993 613.758 262.198C614.057 262.403 614.394 262.556 614.769 262.655C615.149 262.749 615.545 262.796 615.955 262.796C616.547 262.796 617.048 262.714 617.458 262.55C617.868 262.386 618.179 262.151 618.39 261.847C618.606 261.542 618.715 261.182 618.715 260.766ZM621.905 259.351V259.148C621.905 258.463 622.005 257.827 622.204 257.241C622.403 256.649 622.69 256.137 623.065 255.703C623.44 255.264 623.895 254.924 624.428 254.684C624.961 254.438 625.559 254.314 626.221 254.314C626.889 254.314 627.489 254.438 628.022 254.684C628.562 254.924 629.019 255.264 629.394 255.703C629.774 256.137 630.064 256.649 630.264 257.241C630.463 257.827 630.562 258.463 630.562 259.148V259.351C630.562 260.036 630.463 260.672 630.264 261.258C630.064 261.844 629.774 262.356 629.394 262.796C629.019 263.229 628.564 263.569 628.031 263.815C627.504 264.056 626.906 264.176 626.238 264.176C625.57 264.176 624.97 264.056 624.437 263.815C623.903 263.569 623.446 263.229 623.065 262.796C622.69 262.356 622.403 261.844 622.204 261.258C622.005 260.672 621.905 260.036 621.905 259.351ZM623.531 259.148V259.351C623.531 259.825 623.587 260.273 623.698 260.695C623.81 261.111 623.977 261.48 624.199 261.803C624.428 262.125 624.712 262.38 625.052 262.567C625.392 262.749 625.787 262.84 626.238 262.84C626.684 262.84 627.073 262.749 627.407 262.567C627.747 262.38 628.028 262.125 628.251 261.803C628.474 261.48 628.641 261.111 628.752 260.695C628.869 260.273 628.928 259.825 628.928 259.351V259.148C628.928 258.68 628.869 258.237 628.752 257.821C628.641 257.399 628.471 257.027 628.242 256.705C628.02 256.377 627.738 256.119 627.398 255.932C627.064 255.744 626.672 255.65 626.221 255.65C625.775 255.65 625.383 255.744 625.043 255.932C624.709 256.119 624.428 256.377 624.199 256.705C623.977 257.027 623.81 257.399 623.698 257.821C623.587 258.237 623.531 258.68 623.531 259.148ZM634.228 255.984V264H632.602V254.49H634.184L634.228 255.984ZM637.198 254.438L637.189 255.949C637.055 255.92 636.926 255.902 636.803 255.896C636.686 255.885 636.551 255.879 636.398 255.879C636.023 255.879 635.692 255.938 635.405 256.055C635.118 256.172 634.875 256.336 634.676 256.547C634.477 256.758 634.318 257.01 634.201 257.303C634.09 257.59 634.017 257.906 633.981 258.252L633.524 258.516C633.524 257.941 633.58 257.402 633.691 256.898C633.809 256.395 633.987 255.949 634.228 255.562C634.468 255.17 634.772 254.865 635.142 254.648C635.517 254.426 635.962 254.314 636.478 254.314C636.595 254.314 636.729 254.329 636.882 254.358C637.034 254.382 637.14 254.408 637.198 254.438ZM640.327 255.984V264H638.701V254.49H640.283L640.327 255.984ZM643.298 254.438L643.289 255.949C643.154 255.92 643.025 255.902 642.902 255.896C642.785 255.885 642.65 255.879 642.498 255.879C642.123 255.879 641.792 255.938 641.505 256.055C641.218 256.172 640.975 256.336 640.775 256.547C640.576 256.758 640.418 257.01 640.301 257.303C640.189 257.59 640.116 257.906 640.081 258.252L639.624 258.516C639.624 257.941 639.68 257.402 639.791 256.898C639.908 256.395 640.087 255.949 640.327 255.562C640.567 255.17 640.872 254.865 641.241 254.648C641.616 254.426 642.062 254.314 642.577 254.314C642.694 254.314 642.829 254.329 642.981 254.358C643.134 254.382 643.239 254.408 643.298 254.438ZM647.631 263.016L650.276 254.49H652.017L648.202 265.468C648.114 265.702 647.997 265.954 647.851 266.224C647.71 266.499 647.528 266.76 647.306 267.006C647.083 267.252 646.813 267.451 646.497 267.604C646.187 267.762 645.814 267.841 645.381 267.841C645.252 267.841 645.088 267.823 644.889 267.788C644.689 267.753 644.549 267.724 644.467 267.7L644.458 266.382C644.505 266.388 644.578 266.394 644.678 266.399C644.783 266.411 644.856 266.417 644.897 266.417C645.267 266.417 645.58 266.367 645.838 266.268C646.096 266.174 646.312 266.013 646.488 265.784C646.67 265.562 646.825 265.254 646.954 264.861L647.631 263.016ZM645.688 254.49L648.158 261.873L648.58 263.587L647.411 264.185L643.913 254.49H645.688ZM654.012 262.066V263.376C654.012 263.909 653.877 264.472 653.607 265.063C653.338 265.661 652.96 266.159 652.474 266.558L651.551 265.916C651.738 265.658 651.896 265.395 652.025 265.125C652.154 264.861 652.251 264.586 652.315 264.299C652.386 264.018 652.421 263.719 652.421 263.402V262.066H654.012ZM660.542 250.5H662.177V262.154L662.036 264H660.542V250.5ZM668.602 259.166V259.351C668.602 260.042 668.52 260.684 668.355 261.275C668.191 261.861 667.951 262.371 667.635 262.805C667.318 263.238 666.932 263.575 666.475 263.815C666.018 264.056 665.493 264.176 664.901 264.176C664.298 264.176 663.768 264.073 663.311 263.868C662.859 263.657 662.479 263.355 662.168 262.963C661.857 262.57 661.608 262.096 661.421 261.539C661.239 260.982 661.113 260.355 661.043 259.658V258.85C661.113 258.146 661.239 257.517 661.421 256.96C661.608 256.403 661.857 255.929 662.168 255.536C662.479 255.138 662.859 254.836 663.311 254.631C663.762 254.42 664.286 254.314 664.884 254.314C665.481 254.314 666.012 254.432 666.475 254.666C666.938 254.895 667.324 255.223 667.635 255.65C667.951 256.078 668.191 256.591 668.355 257.188C668.52 257.78 668.602 258.439 668.602 259.166ZM666.967 259.351V259.166C666.967 258.691 666.923 258.246 666.835 257.83C666.747 257.408 666.606 257.039 666.413 256.723C666.22 256.4 665.965 256.148 665.648 255.967C665.332 255.779 664.942 255.686 664.479 255.686C664.069 255.686 663.712 255.756 663.407 255.896C663.108 256.037 662.854 256.228 662.643 256.468C662.432 256.702 662.259 256.972 662.124 257.276C661.995 257.575 661.898 257.886 661.834 258.208V260.326C661.928 260.736 662.08 261.132 662.291 261.513C662.508 261.888 662.795 262.195 663.152 262.436C663.516 262.676 663.964 262.796 664.497 262.796C664.937 262.796 665.312 262.708 665.622 262.532C665.938 262.351 666.193 262.102 666.387 261.785C666.586 261.469 666.732 261.103 666.826 260.687C666.92 260.271 666.967 259.825 666.967 259.351ZM676.477 261.803V254.49H678.111V264H676.556L676.477 261.803ZM676.784 259.799L677.461 259.781C677.461 260.414 677.394 261 677.259 261.539C677.13 262.072 676.919 262.535 676.626 262.928C676.333 263.32 675.949 263.628 675.475 263.851C675 264.067 674.423 264.176 673.743 264.176C673.28 264.176 672.855 264.108 672.469 263.974C672.088 263.839 671.76 263.631 671.484 263.35C671.209 263.068 670.995 262.702 670.843 262.251C670.696 261.8 670.623 261.258 670.623 260.625V254.49H672.249V260.643C672.249 261.07 672.296 261.425 672.39 261.706C672.489 261.981 672.621 262.201 672.785 262.365C672.955 262.523 673.143 262.635 673.348 262.699C673.559 262.764 673.775 262.796 673.998 262.796C674.689 262.796 675.237 262.664 675.642 262.4C676.046 262.131 676.336 261.771 676.512 261.319C676.693 260.862 676.784 260.355 676.784 259.799ZM684.571 254.49V255.738H679.43V254.49H684.571ZM681.17 252.179H682.796V261.645C682.796 261.967 682.846 262.21 682.945 262.374C683.045 262.538 683.174 262.646 683.332 262.699C683.49 262.752 683.66 262.778 683.842 262.778C683.977 262.778 684.117 262.767 684.264 262.743C684.416 262.714 684.53 262.69 684.606 262.673L684.615 264C684.486 264.041 684.316 264.079 684.105 264.114C683.9 264.155 683.651 264.176 683.358 264.176C682.96 264.176 682.594 264.097 682.26 263.938C681.926 263.78 681.659 263.517 681.46 263.147C681.267 262.772 681.17 262.269 681.17 261.636V252.179ZM692.569 256.521V264H690.943V254.49H692.481L692.569 256.521ZM692.183 258.885L691.506 258.858C691.512 258.208 691.608 257.607 691.796 257.057C691.983 256.5 692.247 256.017 692.587 255.606C692.927 255.196 693.331 254.88 693.8 254.657C694.274 254.429 694.799 254.314 695.373 254.314C695.842 254.314 696.264 254.379 696.639 254.508C697.014 254.631 697.333 254.83 697.597 255.105C697.866 255.381 698.071 255.738 698.212 256.178C698.353 256.611 698.423 257.142 698.423 257.769V264H696.788V257.751C696.788 257.253 696.715 256.854 696.568 256.556C696.422 256.251 696.208 256.031 695.927 255.896C695.646 255.756 695.3 255.686 694.89 255.686C694.485 255.686 694.116 255.771 693.782 255.94C693.454 256.11 693.17 256.345 692.93 256.644C692.695 256.942 692.511 257.285 692.376 257.672C692.247 258.053 692.183 258.457 692.183 258.885ZM700.462 259.351V259.148C700.462 258.463 700.562 257.827 700.761 257.241C700.96 256.649 701.247 256.137 701.622 255.703C701.997 255.264 702.451 254.924 702.984 254.684C703.518 254.438 704.115 254.314 704.777 254.314C705.445 254.314 706.046 254.438 706.579 254.684C707.118 254.924 707.575 255.264 707.95 255.703C708.331 256.137 708.621 256.649 708.82 257.241C709.02 257.827 709.119 258.463 709.119 259.148V259.351C709.119 260.036 709.02 260.672 708.82 261.258C708.621 261.844 708.331 262.356 707.95 262.796C707.575 263.229 707.121 263.569 706.588 263.815C706.061 264.056 705.463 264.176 704.795 264.176C704.127 264.176 703.526 264.056 702.993 263.815C702.46 263.569 702.003 263.229 701.622 262.796C701.247 262.356 700.96 261.844 700.761 261.258C700.562 260.672 700.462 260.036 700.462 259.351ZM702.088 259.148V259.351C702.088 259.825 702.144 260.273 702.255 260.695C702.366 261.111 702.533 261.48 702.756 261.803C702.984 262.125 703.269 262.38 703.608 262.567C703.948 262.749 704.344 262.84 704.795 262.84C705.24 262.84 705.63 262.749 705.964 262.567C706.304 262.38 706.585 262.125 706.808 261.803C707.03 261.48 707.197 261.111 707.309 260.695C707.426 260.273 707.484 259.825 707.484 259.351V259.148C707.484 258.68 707.426 258.237 707.309 257.821C707.197 257.399 707.027 257.027 706.799 256.705C706.576 256.377 706.295 256.119 705.955 255.932C705.621 255.744 705.229 255.65 704.777 255.65C704.332 255.65 703.939 255.744 703.6 255.932C703.266 256.119 702.984 256.377 702.756 256.705C702.533 257.027 702.366 257.399 702.255 257.821C702.144 258.237 702.088 258.68 702.088 259.148ZM715.14 254.49V255.738H709.998V254.49H715.14ZM711.738 252.179H713.364V261.645C713.364 261.967 713.414 262.21 713.514 262.374C713.613 262.538 713.742 262.646 713.9 262.699C714.059 262.752 714.229 262.778 714.41 262.778C714.545 262.778 714.686 262.767 714.832 262.743C714.984 262.714 715.099 262.69 715.175 262.673L715.184 264C715.055 264.041 714.885 264.079 714.674 264.114C714.469 264.155 714.22 264.176 713.927 264.176C713.528 264.176 713.162 264.097 712.828 263.938C712.494 263.78 712.228 263.517 712.028 263.147C711.835 262.772 711.738 262.269 711.738 261.636V252.179ZM718.673 250.5V264H717.047V250.5H718.673ZM718.286 258.885L717.609 258.858C717.615 258.208 717.712 257.607 717.899 257.057C718.087 256.5 718.351 256.017 718.69 255.606C719.03 255.196 719.435 254.88 719.903 254.657C720.378 254.429 720.902 254.314 721.477 254.314C721.945 254.314 722.367 254.379 722.742 254.508C723.117 254.631 723.437 254.83 723.7 255.105C723.97 255.381 724.175 255.738 724.315 256.178C724.456 256.611 724.526 257.142 724.526 257.769V264H722.892V257.751C722.892 257.253 722.818 256.854 722.672 256.556C722.525 256.251 722.312 256.031 722.03 255.896C721.749 255.756 721.403 255.686 720.993 255.686C720.589 255.686 720.22 255.771 719.886 255.94C719.558 256.11 719.273 256.345 719.033 256.644C718.799 256.942 718.614 257.285 718.479 257.672C718.351 258.053 718.286 258.457 718.286 258.885ZM728.728 254.49V264H727.093V254.49H728.728ZM726.97 251.968C726.97 251.704 727.049 251.481 727.207 251.3C727.371 251.118 727.611 251.027 727.928 251.027C728.238 251.027 728.476 251.118 728.64 251.3C728.81 251.481 728.895 251.704 728.895 251.968C728.895 252.22 728.81 252.437 728.64 252.618C728.476 252.794 728.238 252.882 727.928 252.882C727.611 252.882 727.371 252.794 727.207 252.618C727.049 252.437 726.97 252.22 726.97 251.968ZM732.964 256.521V264H731.338V254.49H732.876L732.964 256.521ZM732.577 258.885L731.9 258.858C731.906 258.208 732.003 257.607 732.19 257.057C732.378 256.5 732.642 256.017 732.981 255.606C733.321 255.196 733.726 254.88 734.194 254.657C734.669 254.429 735.193 254.314 735.768 254.314C736.236 254.314 736.658 254.379 737.033 254.508C737.408 254.631 737.728 254.83 737.991 255.105C738.261 255.381 738.466 255.738 738.606 256.178C738.747 256.611 738.817 257.142 738.817 257.769V264H737.183V257.751C737.183 257.253 737.109 256.854 736.963 256.556C736.816 256.251 736.603 256.031 736.321 255.896C736.04 255.756 735.694 255.686 735.284 255.686C734.88 255.686 734.511 255.771 734.177 255.94C733.849 256.11 733.564 256.345 733.324 256.644C733.09 256.942 732.905 257.285 732.771 257.672C732.642 258.053 732.577 258.457 732.577 258.885ZM747.448 254.49H748.925V263.798C748.925 264.636 748.755 265.351 748.415 265.942C748.075 266.534 747.601 266.982 746.991 267.287C746.388 267.598 745.69 267.753 744.899 267.753C744.571 267.753 744.185 267.7 743.739 267.595C743.3 267.495 742.866 267.322 742.438 267.076C742.017 266.836 741.662 266.511 741.375 266.101L742.228 265.134C742.626 265.614 743.042 265.948 743.476 266.136C743.915 266.323 744.349 266.417 744.776 266.417C745.292 266.417 745.737 266.32 746.112 266.127C746.487 265.934 746.777 265.646 746.982 265.266C747.193 264.891 747.299 264.428 747.299 263.877V256.582L747.448 254.49ZM740.9 259.351V259.166C740.9 258.439 740.985 257.78 741.155 257.188C741.331 256.591 741.58 256.078 741.902 255.65C742.23 255.223 742.626 254.895 743.089 254.666C743.552 254.432 744.073 254.314 744.653 254.314C745.251 254.314 745.772 254.42 746.218 254.631C746.669 254.836 747.05 255.138 747.36 255.536C747.677 255.929 747.926 256.403 748.107 256.96C748.289 257.517 748.415 258.146 748.485 258.85V259.658C748.421 260.355 748.295 260.982 748.107 261.539C747.926 262.096 747.677 262.57 747.36 262.963C747.05 263.355 746.669 263.657 746.218 263.868C745.767 264.073 745.239 264.176 744.636 264.176C744.067 264.176 743.552 264.056 743.089 263.815C742.632 263.575 742.239 263.238 741.911 262.805C741.583 262.371 741.331 261.861 741.155 261.275C740.985 260.684 740.9 260.042 740.9 259.351ZM742.526 259.166V259.351C742.526 259.825 742.573 260.271 742.667 260.687C742.767 261.103 742.916 261.469 743.115 261.785C743.32 262.102 743.581 262.351 743.897 262.532C744.214 262.708 744.592 262.796 745.031 262.796C745.57 262.796 746.016 262.682 746.367 262.453C746.719 262.225 746.997 261.923 747.202 261.548C747.413 261.173 747.577 260.766 747.694 260.326V258.208C747.63 257.886 747.53 257.575 747.396 257.276C747.267 256.972 747.097 256.702 746.886 256.468C746.681 256.228 746.426 256.037 746.121 255.896C745.816 255.756 745.459 255.686 745.049 255.686C744.604 255.686 744.22 255.779 743.897 255.967C743.581 256.148 743.32 256.4 743.115 256.723C742.916 257.039 742.767 257.408 742.667 257.83C742.573 258.246 742.526 258.691 742.526 259.166ZM757.477 256.38V264H755.842V254.49H757.389L757.477 256.38ZM757.143 258.885L756.387 258.858C756.393 258.208 756.478 257.607 756.642 257.057C756.806 256.5 757.049 256.017 757.371 255.606C757.693 255.196 758.095 254.88 758.575 254.657C759.056 254.429 759.612 254.314 760.245 254.314C760.69 254.314 761.101 254.379 761.476 254.508C761.851 254.631 762.176 254.827 762.451 255.097C762.727 255.366 762.94 255.712 763.093 256.134C763.245 256.556 763.321 257.065 763.321 257.663V264H761.695V257.742C761.695 257.244 761.61 256.846 761.44 256.547C761.276 256.248 761.042 256.031 760.737 255.896C760.433 255.756 760.075 255.686 759.665 255.686C759.185 255.686 758.783 255.771 758.461 255.94C758.139 256.11 757.881 256.345 757.688 256.644C757.494 256.942 757.354 257.285 757.266 257.672C757.184 258.053 757.143 258.457 757.143 258.885ZM763.304 257.988L762.214 258.322C762.22 257.801 762.305 257.3 762.469 256.819C762.639 256.339 762.882 255.911 763.198 255.536C763.521 255.161 763.916 254.865 764.385 254.648C764.854 254.426 765.39 254.314 765.993 254.314C766.503 254.314 766.954 254.382 767.347 254.517C767.745 254.651 768.079 254.859 768.349 255.141C768.624 255.416 768.832 255.771 768.973 256.204C769.113 256.638 769.184 257.153 769.184 257.751V264H767.549V257.733C767.549 257.2 767.464 256.787 767.294 256.494C767.13 256.195 766.896 255.987 766.591 255.87C766.292 255.747 765.935 255.686 765.519 255.686C765.161 255.686 764.845 255.747 764.569 255.87C764.294 255.993 764.062 256.163 763.875 256.38C763.688 256.591 763.544 256.834 763.444 257.109C763.351 257.385 763.304 257.678 763.304 257.988ZM777.252 262.374V257.479C777.252 257.104 777.176 256.778 777.023 256.503C776.877 256.222 776.654 256.005 776.355 255.853C776.057 255.7 775.688 255.624 775.248 255.624C774.838 255.624 774.478 255.694 774.167 255.835C773.862 255.976 773.622 256.16 773.446 256.389C773.276 256.617 773.191 256.863 773.191 257.127H771.565C771.565 256.787 771.653 256.45 771.829 256.116C772.005 255.782 772.257 255.48 772.585 255.211C772.919 254.936 773.317 254.719 773.78 254.561C774.249 254.396 774.771 254.314 775.345 254.314C776.036 254.314 776.646 254.432 777.173 254.666C777.706 254.9 778.122 255.255 778.421 255.729C778.726 256.198 778.878 256.787 778.878 257.496V261.926C778.878 262.242 778.904 262.579 778.957 262.937C779.016 263.294 779.101 263.602 779.212 263.859V264H777.516C777.434 263.812 777.369 263.563 777.322 263.253C777.275 262.937 777.252 262.644 777.252 262.374ZM777.533 258.234L777.551 259.377H775.907C775.444 259.377 775.031 259.415 774.668 259.491C774.305 259.562 774 259.67 773.754 259.816C773.508 259.963 773.32 260.147 773.191 260.37C773.062 260.587 772.998 260.842 772.998 261.135C772.998 261.434 773.065 261.706 773.2 261.952C773.335 262.198 773.537 262.395 773.807 262.541C774.082 262.682 774.419 262.752 774.817 262.752C775.315 262.752 775.755 262.646 776.136 262.436C776.517 262.225 776.818 261.967 777.041 261.662C777.27 261.357 777.393 261.062 777.41 260.774L778.104 261.557C778.063 261.803 777.952 262.075 777.771 262.374C777.589 262.673 777.346 262.96 777.041 263.235C776.742 263.505 776.385 263.73 775.969 263.912C775.559 264.088 775.096 264.176 774.58 264.176C773.936 264.176 773.37 264.05 772.884 263.798C772.403 263.546 772.028 263.209 771.759 262.787C771.495 262.359 771.363 261.882 771.363 261.354C771.363 260.845 771.463 260.396 771.662 260.01C771.861 259.617 772.148 259.292 772.523 259.034C772.898 258.771 773.35 258.571 773.877 258.437C774.404 258.302 774.993 258.234 775.644 258.234H777.533ZM785.417 254.49V255.738H780.275V254.49H785.417ZM782.016 252.179H783.642V261.645C783.642 261.967 783.691 262.21 783.791 262.374C783.891 262.538 784.02 262.646 784.178 262.699C784.336 262.752 784.506 262.778 784.688 262.778C784.822 262.778 784.963 262.767 785.109 262.743C785.262 262.714 785.376 262.69 785.452 262.673L785.461 264C785.332 264.041 785.162 264.079 784.951 264.114C784.746 264.155 784.497 264.176 784.204 264.176C783.806 264.176 783.439 264.097 783.105 263.938C782.771 263.78 782.505 263.517 782.306 263.147C782.112 262.772 782.016 262.269 782.016 261.636V252.179ZM791.13 262.84C791.517 262.84 791.874 262.761 792.202 262.603C792.53 262.444 792.8 262.228 793.011 261.952C793.222 261.671 793.342 261.352 793.371 260.994H794.918C794.889 261.557 794.698 262.081 794.347 262.567C794.001 263.048 793.547 263.438 792.984 263.736C792.422 264.029 791.804 264.176 791.13 264.176C790.415 264.176 789.791 264.05 789.258 263.798C788.73 263.546 788.291 263.2 787.939 262.761C787.594 262.321 787.333 261.817 787.157 261.249C786.987 260.675 786.902 260.068 786.902 259.43V259.061C786.902 258.422 786.987 257.818 787.157 257.25C787.333 256.676 787.594 256.169 787.939 255.729C788.291 255.29 788.73 254.944 789.258 254.692C789.791 254.44 790.415 254.314 791.13 254.314C791.874 254.314 792.524 254.467 793.081 254.771C793.638 255.07 794.074 255.48 794.391 256.002C794.713 256.518 794.889 257.104 794.918 257.76H793.371C793.342 257.367 793.23 257.013 793.037 256.696C792.85 256.38 792.592 256.128 792.264 255.94C791.941 255.747 791.563 255.65 791.13 255.65C790.632 255.65 790.213 255.75 789.873 255.949C789.539 256.143 789.272 256.406 789.073 256.74C788.88 257.068 788.739 257.435 788.651 257.839C788.569 258.237 788.528 258.645 788.528 259.061V259.43C788.528 259.846 788.569 260.256 788.651 260.66C788.733 261.064 788.871 261.431 789.064 261.759C789.264 262.087 789.53 262.351 789.864 262.55C790.204 262.743 790.626 262.84 791.13 262.84ZM798.372 250.5V264H796.746V250.5H798.372ZM797.985 258.885L797.309 258.858C797.314 258.208 797.411 257.607 797.599 257.057C797.786 256.5 798.05 256.017 798.39 255.606C798.729 255.196 799.134 254.88 799.603 254.657C800.077 254.429 800.602 254.314 801.176 254.314C801.645 254.314 802.066 254.379 802.441 254.508C802.816 254.631 803.136 254.83 803.399 255.105C803.669 255.381 803.874 255.738 804.015 256.178C804.155 256.611 804.226 257.142 804.226 257.769V264H802.591V257.751C802.591 257.253 802.518 256.854 802.371 256.556C802.225 256.251 802.011 256.031 801.729 255.896C801.448 255.756 801.103 255.686 800.692 255.686C800.288 255.686 799.919 255.771 799.585 255.94C799.257 256.11 798.973 256.345 798.732 256.644C798.498 256.942 798.313 257.285 798.179 257.672C798.05 258.053 797.985 258.457 797.985 258.885ZM810.606 264.176C809.944 264.176 809.344 264.064 808.805 263.842C808.271 263.613 807.812 263.294 807.425 262.884C807.044 262.474 806.751 261.987 806.546 261.425C806.341 260.862 806.238 260.247 806.238 259.579V259.21C806.238 258.437 806.353 257.748 806.581 257.145C806.81 256.535 807.12 256.02 807.513 255.598C807.905 255.176 808.351 254.856 808.849 254.64C809.347 254.423 809.862 254.314 810.396 254.314C811.075 254.314 811.661 254.432 812.153 254.666C812.651 254.9 813.059 255.229 813.375 255.65C813.691 256.066 813.926 256.559 814.078 257.127C814.23 257.689 814.307 258.305 814.307 258.973V259.702H807.205V258.375H812.681V258.252C812.657 257.83 812.569 257.42 812.417 257.021C812.271 256.623 812.036 256.295 811.714 256.037C811.392 255.779 810.952 255.65 810.396 255.65C810.026 255.65 809.687 255.729 809.376 255.888C809.065 256.04 808.799 256.269 808.576 256.573C808.354 256.878 808.181 257.25 808.058 257.689C807.935 258.129 807.873 258.636 807.873 259.21V259.579C807.873 260.03 807.935 260.455 808.058 260.854C808.187 261.246 808.371 261.592 808.611 261.891C808.857 262.189 809.153 262.424 809.499 262.594C809.851 262.764 810.249 262.849 810.694 262.849C811.269 262.849 811.755 262.731 812.153 262.497C812.552 262.263 812.9 261.949 813.199 261.557L814.184 262.339C813.979 262.649 813.718 262.945 813.401 263.227C813.085 263.508 812.695 263.736 812.232 263.912C811.775 264.088 811.233 264.176 810.606 264.176ZM822.199 262.154V250.5H823.834V264H822.34L822.199 262.154ZM815.801 259.351V259.166C815.801 258.439 815.889 257.78 816.064 257.188C816.246 256.591 816.501 256.078 816.829 255.65C817.163 255.223 817.559 254.895 818.016 254.666C818.479 254.432 818.994 254.314 819.562 254.314C820.16 254.314 820.682 254.42 821.127 254.631C821.578 254.836 821.959 255.138 822.27 255.536C822.586 255.929 822.835 256.403 823.017 256.96C823.198 257.517 823.324 258.146 823.395 258.85V259.658C823.33 260.355 823.204 260.982 823.017 261.539C822.835 262.096 822.586 262.57 822.27 262.963C821.959 263.355 821.578 263.657 821.127 263.868C820.676 264.073 820.148 264.176 819.545 264.176C818.988 264.176 818.479 264.056 818.016 263.815C817.559 263.575 817.163 263.238 816.829 262.805C816.501 262.371 816.246 261.861 816.064 261.275C815.889 260.684 815.801 260.042 815.801 259.351ZM817.436 259.166V259.351C817.436 259.825 817.482 260.271 817.576 260.687C817.676 261.103 817.828 261.469 818.033 261.785C818.238 262.102 818.499 262.351 818.815 262.532C819.132 262.708 819.51 262.796 819.949 262.796C820.488 262.796 820.931 262.682 821.276 262.453C821.628 262.225 821.909 261.923 822.12 261.548C822.331 261.173 822.495 260.766 822.612 260.326V258.208C822.542 257.886 822.439 257.575 822.305 257.276C822.176 256.972 822.006 256.702 821.795 256.468C821.59 256.228 821.335 256.037 821.03 255.896C820.731 255.756 820.377 255.686 819.967 255.686C819.521 255.686 819.138 255.779 818.815 255.967C818.499 256.148 818.238 256.4 818.033 256.723C817.828 257.039 817.676 257.408 817.576 257.83C817.482 258.246 817.436 258.691 817.436 259.166ZM649.477 287.016L652.122 278.49H653.862L650.048 289.468C649.96 289.702 649.843 289.954 649.696 290.224C649.556 290.499 649.374 290.76 649.151 291.006C648.929 291.252 648.659 291.451 648.343 291.604C648.032 291.762 647.66 291.841 647.227 291.841C647.098 291.841 646.934 291.823 646.734 291.788C646.535 291.753 646.395 291.724 646.312 291.7L646.304 290.382C646.351 290.388 646.424 290.394 646.523 290.399C646.629 290.411 646.702 290.417 646.743 290.417C647.112 290.417 647.426 290.367 647.684 290.268C647.941 290.174 648.158 290.013 648.334 289.784C648.516 289.562 648.671 289.254 648.8 288.861L649.477 287.016ZM647.534 278.49L650.004 285.873L650.426 287.587L649.257 288.185L645.759 278.49H647.534ZM654.759 283.351V283.148C654.759 282.463 654.858 281.827 655.058 281.241C655.257 280.649 655.544 280.137 655.919 279.703C656.294 279.264 656.748 278.924 657.281 278.684C657.814 278.438 658.412 278.314 659.074 278.314C659.742 278.314 660.343 278.438 660.876 278.684C661.415 278.924 661.872 279.264 662.247 279.703C662.628 280.137 662.918 280.649 663.117 281.241C663.316 281.827 663.416 282.463 663.416 283.148V283.351C663.416 284.036 663.316 284.672 663.117 285.258C662.918 285.844 662.628 286.356 662.247 286.796C661.872 287.229 661.418 287.569 660.885 287.815C660.357 288.056 659.76 288.176 659.092 288.176C658.424 288.176 657.823 288.056 657.29 287.815C656.757 287.569 656.3 287.229 655.919 286.796C655.544 286.356 655.257 285.844 655.058 285.258C654.858 284.672 654.759 284.036 654.759 283.351ZM656.385 283.148V283.351C656.385 283.825 656.44 284.273 656.552 284.695C656.663 285.111 656.83 285.48 657.053 285.803C657.281 286.125 657.565 286.38 657.905 286.567C658.245 286.749 658.641 286.84 659.092 286.84C659.537 286.84 659.927 286.749 660.261 286.567C660.601 286.38 660.882 286.125 661.104 285.803C661.327 285.48 661.494 285.111 661.605 284.695C661.723 284.273 661.781 283.825 661.781 283.351V283.148C661.781 282.68 661.723 282.237 661.605 281.821C661.494 281.399 661.324 281.027 661.096 280.705C660.873 280.377 660.592 280.119 660.252 279.932C659.918 279.744 659.525 279.65 659.074 279.65C658.629 279.65 658.236 279.744 657.896 279.932C657.562 280.119 657.281 280.377 657.053 280.705C656.83 281.027 656.663 281.399 656.552 281.821C656.44 282.237 656.385 282.68 656.385 283.148ZM671.273 285.803V278.49H672.908V288H671.353L671.273 285.803ZM671.581 283.799L672.258 283.781C672.258 284.414 672.19 285 672.056 285.539C671.927 286.072 671.716 286.535 671.423 286.928C671.13 287.32 670.746 287.628 670.271 287.851C669.797 288.067 669.22 288.176 668.54 288.176C668.077 288.176 667.652 288.108 667.266 287.974C666.885 287.839 666.557 287.631 666.281 287.35C666.006 287.068 665.792 286.702 665.64 286.251C665.493 285.8 665.42 285.258 665.42 284.625V278.49H667.046V284.643C667.046 285.07 667.093 285.425 667.187 285.706C667.286 285.981 667.418 286.201 667.582 286.365C667.752 286.523 667.939 286.635 668.145 286.699C668.355 286.764 668.572 286.796 668.795 286.796C669.486 286.796 670.034 286.664 670.438 286.4C670.843 286.131 671.133 285.771 671.309 285.319C671.49 284.862 671.581 284.355 671.581 283.799ZM677.013 279.984V288H675.387V278.49H676.969L677.013 279.984ZM679.983 278.438L679.975 279.949C679.84 279.92 679.711 279.902 679.588 279.896C679.471 279.885 679.336 279.879 679.184 279.879C678.809 279.879 678.478 279.938 678.19 280.055C677.903 280.172 677.66 280.336 677.461 280.547C677.262 280.758 677.104 281.01 676.986 281.303C676.875 281.59 676.802 281.906 676.767 282.252L676.31 282.516C676.31 281.941 676.365 281.402 676.477 280.898C676.594 280.395 676.772 279.949 677.013 279.562C677.253 279.17 677.558 278.865 677.927 278.648C678.302 278.426 678.747 278.314 679.263 278.314C679.38 278.314 679.515 278.329 679.667 278.358C679.819 278.382 679.925 278.408 679.983 278.438ZM691.488 285.478C691.488 285.243 691.436 285.026 691.33 284.827C691.23 284.622 691.022 284.438 690.706 284.273C690.396 284.104 689.927 283.957 689.3 283.834C688.772 283.723 688.295 283.591 687.867 283.438C687.445 283.286 687.085 283.102 686.786 282.885C686.493 282.668 686.268 282.413 686.109 282.12C685.951 281.827 685.872 281.484 685.872 281.092C685.872 280.717 685.954 280.362 686.118 280.028C686.288 279.694 686.525 279.398 686.83 279.141C687.141 278.883 687.513 278.681 687.946 278.534C688.38 278.388 688.863 278.314 689.396 278.314C690.158 278.314 690.809 278.449 691.348 278.719C691.887 278.988 692.3 279.349 692.587 279.8C692.874 280.245 693.018 280.74 693.018 281.285H691.392C691.392 281.021 691.312 280.767 691.154 280.521C691.002 280.269 690.776 280.061 690.478 279.896C690.185 279.732 689.824 279.65 689.396 279.65C688.945 279.65 688.579 279.721 688.298 279.861C688.022 279.996 687.82 280.169 687.691 280.38C687.568 280.591 687.507 280.813 687.507 281.048C687.507 281.224 687.536 281.382 687.595 281.522C687.659 281.657 687.771 281.783 687.929 281.9C688.087 282.012 688.31 282.117 688.597 282.217C688.884 282.316 689.25 282.416 689.695 282.516C690.475 282.691 691.116 282.902 691.62 283.148C692.124 283.395 692.499 283.696 692.745 284.054C692.991 284.411 693.114 284.845 693.114 285.354C693.114 285.771 693.026 286.151 692.851 286.497C692.681 286.843 692.432 287.142 692.104 287.394C691.781 287.64 691.395 287.833 690.943 287.974C690.498 288.108 689.997 288.176 689.44 288.176C688.603 288.176 687.894 288.026 687.313 287.728C686.733 287.429 686.294 287.042 685.995 286.567C685.696 286.093 685.547 285.592 685.547 285.064H687.182C687.205 285.51 687.334 285.864 687.568 286.128C687.803 286.386 688.09 286.57 688.43 286.682C688.77 286.787 689.106 286.84 689.44 286.84C689.886 286.84 690.258 286.781 690.557 286.664C690.861 286.547 691.093 286.386 691.251 286.181C691.409 285.976 691.488 285.741 691.488 285.478ZM699.196 288.176C698.534 288.176 697.934 288.064 697.395 287.842C696.861 287.613 696.401 287.294 696.015 286.884C695.634 286.474 695.341 285.987 695.136 285.425C694.931 284.862 694.828 284.247 694.828 283.579V283.21C694.828 282.437 694.942 281.748 695.171 281.145C695.399 280.535 695.71 280.02 696.103 279.598C696.495 279.176 696.94 278.856 697.438 278.64C697.937 278.423 698.452 278.314 698.985 278.314C699.665 278.314 700.251 278.432 700.743 278.666C701.241 278.9 701.648 279.229 701.965 279.65C702.281 280.066 702.516 280.559 702.668 281.127C702.82 281.689 702.896 282.305 702.896 282.973V283.702H695.795V282.375H701.271V282.252C701.247 281.83 701.159 281.42 701.007 281.021C700.86 280.623 700.626 280.295 700.304 280.037C699.981 279.779 699.542 279.65 698.985 279.65C698.616 279.65 698.276 279.729 697.966 279.888C697.655 280.04 697.389 280.269 697.166 280.573C696.943 280.878 696.771 281.25 696.647 281.689C696.524 282.129 696.463 282.636 696.463 283.21V283.579C696.463 284.03 696.524 284.455 696.647 284.854C696.776 285.246 696.961 285.592 697.201 285.891C697.447 286.189 697.743 286.424 698.089 286.594C698.44 286.764 698.839 286.849 699.284 286.849C699.858 286.849 700.345 286.731 700.743 286.497C701.142 286.263 701.49 285.949 701.789 285.557L702.773 286.339C702.568 286.649 702.308 286.945 701.991 287.227C701.675 287.508 701.285 287.736 700.822 287.912C700.365 288.088 699.823 288.176 699.196 288.176ZM710.402 286.374V281.479C710.402 281.104 710.326 280.778 710.174 280.503C710.027 280.222 709.805 280.005 709.506 279.853C709.207 279.7 708.838 279.624 708.398 279.624C707.988 279.624 707.628 279.694 707.317 279.835C707.013 279.976 706.772 280.16 706.597 280.389C706.427 280.617 706.342 280.863 706.342 281.127H704.716C704.716 280.787 704.804 280.45 704.979 280.116C705.155 279.782 705.407 279.48 705.735 279.211C706.069 278.936 706.468 278.719 706.931 278.561C707.399 278.396 707.921 278.314 708.495 278.314C709.187 278.314 709.796 278.432 710.323 278.666C710.856 278.9 711.272 279.255 711.571 279.729C711.876 280.198 712.028 280.787 712.028 281.496V285.926C712.028 286.242 712.055 286.579 712.107 286.937C712.166 287.294 712.251 287.602 712.362 287.859V288H710.666C710.584 287.812 710.52 287.563 710.473 287.253C710.426 286.937 710.402 286.644 710.402 286.374ZM710.684 282.234L710.701 283.377H709.058C708.595 283.377 708.182 283.415 707.818 283.491C707.455 283.562 707.15 283.67 706.904 283.816C706.658 283.963 706.471 284.147 706.342 284.37C706.213 284.587 706.148 284.842 706.148 285.135C706.148 285.434 706.216 285.706 706.351 285.952C706.485 286.198 706.688 286.395 706.957 286.541C707.232 286.682 707.569 286.752 707.968 286.752C708.466 286.752 708.905 286.646 709.286 286.436C709.667 286.225 709.969 285.967 710.191 285.662C710.42 285.357 710.543 285.062 710.561 284.774L711.255 285.557C711.214 285.803 711.103 286.075 710.921 286.374C710.739 286.673 710.496 286.96 710.191 287.235C709.893 287.505 709.535 287.73 709.119 287.912C708.709 288.088 708.246 288.176 707.73 288.176C707.086 288.176 706.521 288.05 706.034 287.798C705.554 287.546 705.179 287.209 704.909 286.787C704.646 286.359 704.514 285.882 704.514 285.354C704.514 284.845 704.613 284.396 704.812 284.01C705.012 283.617 705.299 283.292 705.674 283.034C706.049 282.771 706.5 282.571 707.027 282.437C707.555 282.302 708.144 282.234 708.794 282.234H710.684ZM716.212 279.984V288H714.586V278.49H716.168L716.212 279.984ZM719.183 278.438L719.174 279.949C719.039 279.92 718.91 279.902 718.787 279.896C718.67 279.885 718.535 279.879 718.383 279.879C718.008 279.879 717.677 279.938 717.39 280.055C717.103 280.172 716.859 280.336 716.66 280.547C716.461 280.758 716.303 281.01 716.186 281.303C716.074 281.59 716.001 281.906 715.966 282.252L715.509 282.516C715.509 281.941 715.564 281.402 715.676 280.898C715.793 280.395 715.972 279.949 716.212 279.562C716.452 279.17 716.757 278.865 717.126 278.648C717.501 278.426 717.946 278.314 718.462 278.314C718.579 278.314 718.714 278.329 718.866 278.358C719.019 278.382 719.124 278.408 719.183 278.438ZM724.315 286.84C724.702 286.84 725.06 286.761 725.388 286.603C725.716 286.444 725.985 286.228 726.196 285.952C726.407 285.671 726.527 285.352 726.557 284.994H728.104C728.074 285.557 727.884 286.081 727.532 286.567C727.187 287.048 726.732 287.438 726.17 287.736C725.607 288.029 724.989 288.176 724.315 288.176C723.601 288.176 722.977 288.05 722.443 287.798C721.916 287.546 721.477 287.2 721.125 286.761C720.779 286.321 720.519 285.817 720.343 285.249C720.173 284.675 720.088 284.068 720.088 283.43V283.061C720.088 282.422 720.173 281.818 720.343 281.25C720.519 280.676 720.779 280.169 721.125 279.729C721.477 279.29 721.916 278.944 722.443 278.692C722.977 278.44 723.601 278.314 724.315 278.314C725.06 278.314 725.71 278.467 726.267 278.771C726.823 279.07 727.26 279.48 727.576 280.002C727.898 280.518 728.074 281.104 728.104 281.76H726.557C726.527 281.367 726.416 281.013 726.223 280.696C726.035 280.38 725.777 280.128 725.449 279.94C725.127 279.747 724.749 279.65 724.315 279.65C723.817 279.65 723.398 279.75 723.059 279.949C722.725 280.143 722.458 280.406 722.259 280.74C722.065 281.068 721.925 281.435 721.837 281.839C721.755 282.237 721.714 282.645 721.714 283.061V283.43C721.714 283.846 721.755 284.256 721.837 284.66C721.919 285.064 722.057 285.431 722.25 285.759C722.449 286.087 722.716 286.351 723.05 286.55C723.39 286.743 723.812 286.84 724.315 286.84ZM731.558 274.5V288H729.932V274.5H731.558ZM731.171 282.885L730.494 282.858C730.5 282.208 730.597 281.607 730.784 281.057C730.972 280.5 731.235 280.017 731.575 279.606C731.915 279.196 732.319 278.88 732.788 278.657C733.263 278.429 733.787 278.314 734.361 278.314C734.83 278.314 735.252 278.379 735.627 278.508C736.002 278.631 736.321 278.83 736.585 279.105C736.854 279.381 737.06 279.738 737.2 280.178C737.341 280.611 737.411 281.142 737.411 281.769V288H735.776V281.751C735.776 281.253 735.703 280.854 735.557 280.556C735.41 280.251 735.196 280.031 734.915 279.896C734.634 279.756 734.288 279.686 733.878 279.686C733.474 279.686 733.104 279.771 732.771 279.94C732.442 280.11 732.158 280.345 731.918 280.644C731.684 280.942 731.499 281.285 731.364 281.672C731.235 282.053 731.171 282.457 731.171 282.885ZM748.292 278.49V279.738H743.15V278.49H748.292ZM744.891 276.179H746.517V285.645C746.517 285.967 746.566 286.21 746.666 286.374C746.766 286.538 746.895 286.646 747.053 286.699C747.211 286.752 747.381 286.778 747.562 286.778C747.697 286.778 747.838 286.767 747.984 286.743C748.137 286.714 748.251 286.69 748.327 286.673L748.336 288C748.207 288.041 748.037 288.079 747.826 288.114C747.621 288.155 747.372 288.176 747.079 288.176C746.681 288.176 746.314 288.097 745.98 287.938C745.646 287.78 745.38 287.517 745.181 287.147C744.987 286.772 744.891 286.269 744.891 285.636V276.179ZM754.146 288.176C753.483 288.176 752.883 288.064 752.344 287.842C751.811 287.613 751.351 287.294 750.964 286.884C750.583 286.474 750.29 285.987 750.085 285.425C749.88 284.862 749.777 284.247 749.777 283.579V283.21C749.777 282.437 749.892 281.748 750.12 281.145C750.349 280.535 750.659 280.02 751.052 279.598C751.444 279.176 751.89 278.856 752.388 278.64C752.886 278.423 753.401 278.314 753.935 278.314C754.614 278.314 755.2 278.432 755.692 278.666C756.19 278.9 756.598 279.229 756.914 279.65C757.23 280.066 757.465 280.559 757.617 281.127C757.77 281.689 757.846 282.305 757.846 282.973V283.702H750.744V282.375H756.22V282.252C756.196 281.83 756.108 281.42 755.956 281.021C755.81 280.623 755.575 280.295 755.253 280.037C754.931 279.779 754.491 279.65 753.935 279.65C753.565 279.65 753.226 279.729 752.915 279.888C752.604 280.04 752.338 280.269 752.115 280.573C751.893 280.878 751.72 281.25 751.597 281.689C751.474 282.129 751.412 282.636 751.412 283.21V283.579C751.412 284.03 751.474 284.455 751.597 284.854C751.726 285.246 751.91 285.592 752.15 285.891C752.396 286.189 752.692 286.424 753.038 286.594C753.39 286.764 753.788 286.849 754.233 286.849C754.808 286.849 755.294 286.731 755.692 286.497C756.091 286.263 756.439 285.949 756.738 285.557L757.723 286.339C757.518 286.649 757.257 286.945 756.94 287.227C756.624 287.508 756.234 287.736 755.771 287.912C755.314 288.088 754.772 288.176 754.146 288.176ZM761.37 279.984V288H759.744V278.49H761.326L761.37 279.984ZM764.341 278.438L764.332 279.949C764.197 279.92 764.068 279.902 763.945 279.896C763.828 279.885 763.693 279.879 763.541 279.879C763.166 279.879 762.835 279.938 762.548 280.055C762.261 280.172 762.018 280.336 761.818 280.547C761.619 280.758 761.461 281.01 761.344 281.303C761.232 281.59 761.159 281.906 761.124 282.252L760.667 282.516C760.667 281.941 760.723 281.402 760.834 280.898C760.951 280.395 761.13 279.949 761.37 279.562C761.61 279.17 761.915 278.865 762.284 278.648C762.659 278.426 763.104 278.314 763.62 278.314C763.737 278.314 763.872 278.329 764.024 278.358C764.177 278.382 764.282 278.408 764.341 278.438ZM767.461 280.38V288H765.826V278.49H767.373L767.461 280.38ZM767.127 282.885L766.371 282.858C766.377 282.208 766.462 281.607 766.626 281.057C766.79 280.5 767.033 280.017 767.355 279.606C767.678 279.196 768.079 278.88 768.56 278.657C769.04 278.429 769.597 278.314 770.229 278.314C770.675 278.314 771.085 278.379 771.46 278.508C771.835 278.631 772.16 278.827 772.436 279.097C772.711 279.366 772.925 279.712 773.077 280.134C773.229 280.556 773.306 281.065 773.306 281.663V288H771.68V281.742C771.68 281.244 771.595 280.846 771.425 280.547C771.261 280.248 771.026 280.031 770.722 279.896C770.417 279.756 770.06 279.686 769.649 279.686C769.169 279.686 768.768 279.771 768.445 279.94C768.123 280.11 767.865 280.345 767.672 280.644C767.479 280.942 767.338 281.285 767.25 281.672C767.168 282.053 767.127 282.457 767.127 282.885ZM773.288 281.988L772.198 282.322C772.204 281.801 772.289 281.3 772.453 280.819C772.623 280.339 772.866 279.911 773.183 279.536C773.505 279.161 773.9 278.865 774.369 278.648C774.838 278.426 775.374 278.314 775.978 278.314C776.487 278.314 776.938 278.382 777.331 278.517C777.729 278.651 778.063 278.859 778.333 279.141C778.608 279.416 778.816 279.771 778.957 280.204C779.098 280.638 779.168 281.153 779.168 281.751V288H777.533V281.733C777.533 281.2 777.448 280.787 777.278 280.494C777.114 280.195 776.88 279.987 776.575 279.87C776.276 279.747 775.919 279.686 775.503 279.686C775.146 279.686 774.829 279.747 774.554 279.87C774.278 279.993 774.047 280.163 773.859 280.38C773.672 280.591 773.528 280.834 773.429 281.109C773.335 281.385 773.288 281.678 773.288 281.988ZM787.166 285.478C787.166 285.243 787.113 285.026 787.008 284.827C786.908 284.622 786.7 284.438 786.384 284.273C786.073 284.104 785.604 283.957 784.978 283.834C784.45 283.723 783.973 283.591 783.545 283.438C783.123 283.286 782.763 283.102 782.464 282.885C782.171 282.668 781.945 282.413 781.787 282.12C781.629 281.827 781.55 281.484 781.55 281.092C781.55 280.717 781.632 280.362 781.796 280.028C781.966 279.694 782.203 279.398 782.508 279.141C782.818 278.883 783.19 278.681 783.624 278.534C784.058 278.388 784.541 278.314 785.074 278.314C785.836 278.314 786.486 278.449 787.025 278.719C787.564 278.988 787.978 279.349 788.265 279.8C788.552 280.245 788.695 280.74 788.695 281.285H787.069C787.069 281.021 786.99 280.767 786.832 280.521C786.68 280.269 786.454 280.061 786.155 279.896C785.862 279.732 785.502 279.65 785.074 279.65C784.623 279.65 784.257 279.721 783.976 279.861C783.7 279.996 783.498 280.169 783.369 280.38C783.246 280.591 783.185 280.813 783.185 281.048C783.185 281.224 783.214 281.382 783.272 281.522C783.337 281.657 783.448 281.783 783.606 281.9C783.765 282.012 783.987 282.117 784.274 282.217C784.562 282.316 784.928 282.416 785.373 282.516C786.152 282.691 786.794 282.902 787.298 283.148C787.802 283.395 788.177 283.696 788.423 284.054C788.669 284.411 788.792 284.845 788.792 285.354C788.792 285.771 788.704 286.151 788.528 286.497C788.358 286.843 788.109 287.142 787.781 287.394C787.459 287.64 787.072 287.833 786.621 287.974C786.176 288.108 785.675 288.176 785.118 288.176C784.28 288.176 783.571 288.026 782.991 287.728C782.411 287.429 781.972 287.042 781.673 286.567C781.374 286.093 781.225 285.592 781.225 285.064H782.859C782.883 285.51 783.012 285.864 783.246 286.128C783.48 286.386 783.768 286.57 784.107 286.682C784.447 286.787 784.784 286.84 785.118 286.84C785.563 286.84 785.936 286.781 786.234 286.664C786.539 286.547 786.771 286.386 786.929 286.181C787.087 285.976 787.166 285.741 787.166 285.478ZM790.954 287.139C790.954 286.863 791.039 286.632 791.209 286.444C791.385 286.251 791.637 286.154 791.965 286.154C792.293 286.154 792.542 286.251 792.712 286.444C792.888 286.632 792.976 286.863 792.976 287.139C792.976 287.408 792.888 287.637 792.712 287.824C792.542 288.012 792.293 288.105 791.965 288.105C791.637 288.105 791.385 288.012 791.209 287.824C791.039 287.637 790.954 287.408 790.954 287.139Z" fill="#6C707A"/>
<path d="M631.844 225V223.4L633.913 223.045V208.483L631.844 208.128V206.516H633.913H636.439L645.504 220.925L645.58 220.899V208.483L643.308 208.128V206.516H647.878H649.947V208.128L647.878 208.483V225H645.593L636.287 210.515L636.211 210.54V223.045L638.483 223.4V225H631.844ZM658.148 225.267C656.879 225.267 655.783 224.97 654.86 224.378C653.946 223.777 653.24 222.952 652.74 221.902C652.241 220.844 651.991 219.638 651.991 218.284V218.005C651.991 216.651 652.241 215.449 652.74 214.399C653.24 213.341 653.946 212.512 654.86 211.911C655.783 211.31 656.87 211.01 658.123 211.01C659.393 211.01 660.484 211.31 661.398 211.911C662.321 212.512 663.032 213.337 663.531 214.387C664.031 215.436 664.28 216.642 664.28 218.005V218.284C664.28 219.647 664.031 220.857 663.531 221.915C663.032 222.965 662.325 223.785 661.411 224.378C660.497 224.97 659.41 225.267 658.148 225.267ZM658.148 223.312C658.944 223.312 659.608 223.096 660.142 222.664C660.683 222.224 661.09 221.627 661.36 220.874C661.64 220.112 661.779 219.249 661.779 218.284V218.005C661.779 217.04 661.64 216.181 661.36 215.428C661.09 214.666 660.683 214.069 660.142 213.638C659.6 213.198 658.927 212.978 658.123 212.978C657.327 212.978 656.659 213.198 656.117 213.638C655.576 214.069 655.169 214.666 654.898 215.428C654.628 216.181 654.492 217.04 654.492 218.005V218.284C654.492 219.249 654.628 220.112 654.898 220.874C655.169 221.627 655.576 222.224 656.117 222.664C656.667 223.096 657.344 223.312 658.148 223.312ZM671.06 225.216C670.044 225.216 669.236 224.92 668.635 224.327C668.042 223.726 667.746 222.77 667.746 221.458V213.117H665.575V211.264H667.746V207.95H670.247V211.264H673.23V213.117H670.247V221.458C670.247 222.118 670.378 222.605 670.641 222.918C670.903 223.231 671.254 223.388 671.694 223.388C671.991 223.388 672.321 223.362 672.685 223.312C673.049 223.252 673.332 223.201 673.535 223.159L673.878 224.797C673.514 224.907 673.065 225.004 672.532 225.089C672.007 225.174 671.517 225.216 671.06 225.216ZM675.16 225V223.4L677.229 223.045V207.163L675.16 206.808V205.195H679.73V213.092C680.204 212.432 680.784 211.92 681.47 211.556C682.155 211.192 682.917 211.01 683.755 211.01C685.228 211.01 686.37 211.45 687.183 212.33C687.995 213.21 688.401 214.564 688.401 216.393V223.045L690.471 223.4V225H683.831V223.4L685.9 223.045V216.367C685.9 215.233 685.655 214.395 685.164 213.854C684.682 213.312 683.958 213.041 682.993 213.041C682.308 213.041 681.681 213.206 681.114 213.536C680.556 213.858 680.094 214.298 679.73 214.856V223.045L681.8 223.4V225H675.16ZM692.096 225V223.4L694.165 223.045V213.231L692.096 212.876V211.264H696.666V223.045L698.735 223.4V225H692.096ZM694.038 207.874V205.195H696.666V207.874H694.038ZM700.462 225V223.4L702.531 223.045V213.231L700.462 212.876V211.264H704.766L704.943 213.308C705.4 212.58 705.972 212.017 706.657 211.619C707.351 211.213 708.138 211.01 709.019 211.01C710.5 211.01 711.646 211.446 712.459 212.317C713.271 213.181 713.678 214.518 713.678 216.329V223.045L715.747 223.4V225H709.107V223.4L711.177 223.045V216.38C711.177 215.17 710.936 214.311 710.453 213.803C709.979 213.295 709.251 213.041 708.27 213.041C707.55 213.041 706.911 213.215 706.353 213.562C705.802 213.909 705.362 214.382 705.032 214.983V223.045L707.102 223.4V225H700.462ZM723.428 230.548C722.768 230.548 722.052 230.455 721.282 230.269C720.512 230.091 719.835 229.845 719.251 229.532L719.898 227.59C720.364 227.835 720.914 228.038 721.549 228.199C722.184 228.36 722.801 228.44 723.402 228.44C724.52 228.44 725.336 228.127 725.853 227.501C726.377 226.875 726.64 225.982 726.64 224.822V223.515C726.191 224.09 725.654 224.526 725.027 224.822C724.401 225.118 723.682 225.267 722.869 225.267C721.752 225.267 720.787 224.992 719.975 224.441C719.162 223.883 718.536 223.108 718.096 222.118C717.664 221.119 717.448 219.964 717.448 218.652V218.386C717.448 216.913 717.664 215.622 718.096 214.514C718.536 213.405 719.162 212.546 719.975 211.937C720.787 211.319 721.76 211.01 722.895 211.01C723.758 211.01 724.515 211.179 725.167 211.518C725.819 211.856 726.365 212.347 726.805 212.99L727.033 211.264H729.141V224.822C729.141 226.007 728.916 227.027 728.468 227.882C728.028 228.737 727.38 229.393 726.525 229.85C725.679 230.315 724.646 230.548 723.428 230.548ZM723.491 223.235C724.244 223.235 724.875 223.066 725.383 222.728C725.891 222.381 726.31 221.894 726.64 221.268V214.945C726.318 214.361 725.899 213.9 725.383 213.562C724.867 213.215 724.244 213.041 723.517 213.041C722.721 213.041 722.057 213.27 721.523 213.727C720.999 214.184 720.605 214.814 720.343 215.618C720.08 216.414 719.949 217.336 719.949 218.386V218.652C719.949 220.032 720.241 221.141 720.825 221.979C721.409 222.816 722.298 223.235 723.491 223.235ZM728.76 213.308L727.782 211.264H730.842V212.863L728.76 213.308ZM738.522 225V223.4L740.592 223.045V213.117H738.446V211.264H740.592V209.524C740.592 208.06 740.973 206.93 741.734 206.135C742.505 205.331 743.575 204.929 744.946 204.929C745.234 204.929 745.543 204.954 745.873 205.005C746.212 205.047 746.559 205.111 746.914 205.195L746.609 207.1C746.457 207.066 746.25 207.036 745.987 207.011C745.733 206.985 745.492 206.973 745.264 206.973C744.527 206.973 743.981 207.193 743.626 207.633C743.271 208.064 743.093 208.695 743.093 209.524V211.264H746.089V213.117H743.093V223.045L745.454 223.4V225H738.522ZM753.871 225.267C752.602 225.267 751.506 224.97 750.583 224.378C749.669 223.777 748.962 222.952 748.463 221.902C747.964 220.844 747.714 219.638 747.714 218.284V218.005C747.714 216.651 747.964 215.449 748.463 214.399C748.962 213.341 749.669 212.512 750.583 211.911C751.506 211.31 752.593 211.01 753.846 211.01C755.115 211.01 756.207 211.31 757.121 211.911C758.044 212.512 758.755 213.337 759.254 214.387C759.753 215.436 760.003 216.642 760.003 218.005V218.284C760.003 219.647 759.753 220.857 759.254 221.915C758.755 222.965 758.048 223.785 757.134 224.378C756.22 224.97 755.132 225.267 753.871 225.267ZM753.871 223.312C754.667 223.312 755.331 223.096 755.864 222.664C756.406 222.224 756.812 221.627 757.083 220.874C757.362 220.112 757.502 219.249 757.502 218.284V218.005C757.502 217.04 757.362 216.181 757.083 215.428C756.812 214.666 756.406 214.069 755.864 213.638C755.323 213.198 754.65 212.978 753.846 212.978C753.05 212.978 752.382 213.198 751.84 213.638C751.298 214.069 750.892 214.666 750.621 215.428C750.35 216.181 750.215 217.04 750.215 218.005V218.284C750.215 219.249 750.35 220.112 750.621 220.874C750.892 221.627 751.298 222.224 751.84 222.664C752.39 223.096 753.067 223.312 753.871 223.312ZM767.976 225.267C766.486 225.267 765.322 224.788 764.484 223.832C763.646 222.876 763.228 221.386 763.228 219.363V213.231L761.653 212.876V211.264H763.228H765.729V219.389C765.729 220.853 765.944 221.86 766.376 222.41C766.808 222.96 767.48 223.235 768.395 223.235C769.283 223.235 770.015 223.058 770.591 222.702C771.175 222.338 771.615 221.826 771.911 221.166V213.231L770.07 212.876V211.264H771.911H774.412V223.045L775.986 223.4V225H772.165L772 222.969C771.568 223.705 771.01 224.272 770.324 224.67C769.647 225.068 768.864 225.267 767.976 225.267ZM777.751 225V223.4L779.82 223.045V213.231L777.751 212.876V211.264H782.055L782.232 213.308C782.689 212.58 783.261 212.017 783.946 211.619C784.64 211.213 785.427 211.01 786.308 211.01C787.789 211.01 788.936 211.446 789.748 212.317C790.561 213.181 790.967 214.518 790.967 216.329V223.045L793.036 223.4V225H786.396V223.4L788.466 223.045V216.38C788.466 215.17 788.225 214.311 787.742 213.803C787.268 213.295 786.54 213.041 785.559 213.041C784.839 213.041 784.2 213.215 783.642 213.562C783.091 213.909 782.651 214.382 782.321 214.983V223.045L784.391 223.4V225H777.751ZM800.082 225.267C798.965 225.267 798.004 224.992 797.2 224.441C796.405 223.883 795.795 223.108 795.372 222.118C794.949 221.128 794.737 219.973 794.737 218.652V218.386C794.737 216.913 794.949 215.622 795.372 214.514C795.795 213.405 796.409 212.546 797.213 211.937C798.017 211.319 798.982 211.01 800.107 211.01C800.92 211.01 801.635 211.162 802.253 211.467C802.879 211.763 803.412 212.195 803.853 212.762V207.163L801.783 206.808V205.195H803.853H806.354V223.045L808.423 223.4V225H804.183L803.979 223.362C803.531 223.989 802.981 224.463 802.329 224.784C801.686 225.106 800.937 225.267 800.082 225.267ZM800.717 223.235C801.462 223.235 802.088 223.066 802.596 222.728C803.104 222.389 803.522 221.911 803.853 221.293V214.92C803.531 214.344 803.112 213.887 802.596 213.549C802.079 213.21 801.462 213.041 800.742 213.041C799.947 213.041 799.291 213.27 798.774 213.727C798.258 214.175 797.873 214.801 797.619 215.605C797.365 216.401 797.238 217.328 797.238 218.386V218.652C797.238 220.032 797.522 221.141 798.089 221.979C798.656 222.816 799.532 223.235 800.717 223.235Z" fill="#1A1B22"/>
<circle cx="715" cy="123" r="36.5" stroke="#6C707A"/>
<path d="M741 149L760.5 168.5" stroke="#6C707A"/>
<path d="M730.328 135.959C726.661 131.698 721.227 129 715.164 129C709.101 129 703.668 131.698 700 135.959" stroke="#6C707A"/>
<circle cx="727.5" cy="113.5" r="1.5" fill="#6C707A"/>
<circle cx="702.5" cy="113.5" r="1.5" fill="#6C707A"/>
</svg>
